<?xml version="1.0" encoding="utf-8"?>
<!-- Generator: Adobe Illustrator 27.5.0, SVG Export Plug-In . SVG Version: 6.00 Build 0)  -->
<svg version="1.1"
	 id="svg3070" xmlns:sodipodi="http://sodipodi.sourceforge.net/DTD/sodipodi-0.dtd" xmlns:svg="http://www.w3.org/2000/svg" xmlns:rdf="http://www.w3.org/1999/02/22-rdf-syntax-ns#" xmlns:inkscape="http://www.inkscape.org/namespaces/inkscape" xmlns:dc="http://purl.org/dc/elements/1.1/" xmlns:cc="http://creativecommons.org/ns#" inkscape:version="0.48.0 r9654" sodipodi:docname="New document 4"
	 xmlns="http://www.w3.org/2000/svg" xmlns:xlink="http://www.w3.org/1999/xlink" x="0px" y="0px" viewBox="0 0 64 64"
	 style="enable-background:new 0 0 64 64;" xml:space="preserve">
<style type="text/css">
	.st0{fill:#006699;}
	.st1{fill-rule:evenodd;clip-rule:evenodd;}
	.st2{fill-rule:evenodd;clip-rule:evenodd;fill:#FFFFFF;}
	.st3{fill:#FFFFFF;}
</style>
<sodipodi:namedview  bordercolor="#666666" borderopacity="1.0" fit-margin-bottom="0" fit-margin-left="0" fit-margin-right="0" fit-margin-top="0" id="base" inkscape:current-layer="layer1" inkscape:cx="142.93233" inkscape:cy="33.703355" inkscape:document-units="px" inkscape:pageopacity="0.0" inkscape:pageshadow="2" inkscape:window-height="750" inkscape:window-maximized="1" inkscape:window-width="1280" inkscape:window-x="-8" inkscape:window-y="-8" inkscape:zoom="2.8" pagecolor="#ffffff" showgrid="false">
	</sodipodi:namedview>
<g id="g3019" transform="matrix(1.018827,0,0,-1.018827,170.5996,498.03288)">
	<path id="path14" inkscape:connector-curvature="0" class="st0" d="M-280.5,640.8c0,3,2.5,5.4,5.5,5.4h63.4c3,0,5.5-2.4,5.5-5.4
		v-64.1c0-3-2.5-5.4-5.5-5.4H-275c-3,0-5.5,2.4-5.5,5.4V640.8z"/>
	<path id="path16" inkscape:connector-curvature="0" class="st1" d="M-488.7,583.4h31v10.2h-19.8v38.9h-11.2
		C-488.7,632.5-488.7,583.4-488.7,583.4z"/>
	<path id="path18" inkscape:connector-curvature="0" class="st1" d="M-441.9,583.4v33.8h-11.2v-33.8H-441.9z M-447.5,621.9
		c3.9,0,6.4,2.6,6.4,5.8c-0.1,3.3-2.4,5.8-6.3,5.8c-3.8,0-6.4-2.5-6.4-5.8S-451.4,621.9-447.5,621.9L-447.5,621.9L-447.5,621.9z"/>
	<path id="path20" inkscape:connector-curvature="0" class="st1" d="M-436.7,583.4h11.2v18.9c0,1,0.1,2,0.4,2.7
		c0.8,2,2.7,4.1,5.8,4.1c4.1,0,5.7-3.1,5.7-7.6v-18.1h11.2v19.4c0,10.4-5.5,15.2-12.9,15.2c-6.1,0-8.7-3.4-10.2-5.7h0.1v4.9h-11.2
		C-436.5,614.1-436.7,583.4-436.7,583.4L-436.7,583.4z"/>
	<path id="path22" inkscape:connector-curvature="0" class="st1" d="M-386.6,632.5h-11.2v-49.1h11.2v11l2.8,3.5l8.8-14.5h13.8
		l-14.8,21l12.9,14.3h-13.5c0,0-9.2-12.8-10-14.3L-386.6,632.5L-386.6,632.5z"/>
	<path id="path24" inkscape:connector-curvature="0" class="st1" d="M-331.1,597.5c0.1,0.9,0.4,2.5,0.4,4.4
		c0,8.7-4.4,17.6-16.1,17.6c-12.5,0-18.3-9.9-18.3-18.8c0-11.1,7-18,19.3-18c4.9,0,9.4,0.7,13.1,2.2l-1.5,7.4c-3-1-6.1-1.5-10-1.5
		c-5.2,0-9.8,2.2-10.2,6.7L-331.1,597.5L-331.1,597.5z M-354.5,605.1c0.3,2.9,2.2,7.1,7,7.1c5.1,0,6.3-4.5,6.3-7.1H-354.5z"/>
	<path id="path26" inkscape:connector-curvature="0" class="st1" d="M-303,632.5v-17h-0.1c-1.6,2.4-5,4-9.5,4
		c-8.6,0-16.3-6.9-16.2-18.7c0-11,6.9-18.1,15.4-18.1c4.7,0,9.1,2,11.3,5.9h0.2l0.4-5.1h10c-0.1,2.4-0.3,6.5-0.3,10.5v38.5
		L-303,632.5L-303,632.5z M-303,599.1c0-0.9-0.1-1.7-0.2-2.5c-0.7-3.1-3.3-5.3-6.6-5.3c-4.7,0-7.7,3.7-7.7,9.7c0,5.6,2.6,10,7.8,10
		c3.5,0,5.9-2.4,6.6-5.3c0.1-0.7,0.1-1.4,0.1-2L-303,599.1L-303,599.1z"/>
	<path id="path28" inkscape:connector-curvature="0" class="st2" d="M-257.9,583.5v33.8h-11.2v-33.8H-257.9z M-263.6,621.9
		c3.9,0,6.4,2.6,6.4,5.8c-0.1,3.3-2.4,5.8-6.3,5.8c-3.8,0-6.4-2.5-6.4-5.8C-269.8,624.5-267.4,621.9-263.6,621.9L-263.6,621.9
		L-263.6,621.9z"/>
	<path id="path30" inkscape:connector-curvature="0" class="st2" d="M-251.7,583.5h11.2v18.9c0,1,0.1,2,0.4,2.7
		c0.8,2,2.7,4.1,5.8,4.1c4.1,0,5.7-3.1,5.7-7.6v-18.1h11.2v19.4c0,10.4-5.5,15.2-12.9,15.2c-6.1,0-8.7-3.4-10.2-5.7h0.1v4.9h-11.2
		C-251.6,614.1-251.7,583.5-251.7,583.5L-251.7,583.5z"/>
</g>
<g>
	<path class="st0" d="M34.1,29.2L34.1,29.2L34.1,29.2L34.1,29.2z"/>
	<path class="st3" d="M55.9,3.8H8.1C5.9,3.8,4,5.6,4,7.9v48.3c0,2.2,1.9,4,4.1,4h47.7c2.3,0,4.1-1.8,4.1-4V7.9
		C60,5.6,58.1,3.8,55.9,3.8z M21,51h-8.5V25.6H21V51z M16.7,22.1L16.7,22.1L16.7,22.1c-2.9,0-4.7-2-4.7-4.4c0-2.5,1.9-4.4,4.8-4.4
		s4.7,1.9,4.7,4.4C21.5,20.1,19.7,22.1,16.7,22.1z M51.5,51H43V37.4c0-3.4-1.2-5.8-4.3-5.8c-2.3,0-3.7,1.6-4.3,3.1
		c-0.2,0.5-0.3,1.3-0.3,2.1V51h-8.5c0,0,0.1-23.1,0-25.4h8.5v3.6c1.1-1.7,3.1-4.2,7.6-4.2c5.6,0,9.7,3.6,9.7,11.5L51.5,51L51.5,51z"
		/>
</g>
<g id="g3019_00000016073350027785272700000011780189882596504229_" transform="matrix(1.018827,0,0,-1.018827,170.5996,498.03288)">
	<path id="path14_00000090278513013187225360000017073709269806261943_" inkscape:connector-curvature="0" class="st0" d="
		M-163.5,557.3c0,2.2,1.8,4,4.1,4h46.8c2.2,0,4.1-1.8,4.1-4v-47.4c0-2.2-1.8-4-4.1-4h-46.8c-2.2,0-4.1,1.8-4.1,4V557.3z"/>
	<path id="path28_00000004514216850324092490000005937284582193727629_" inkscape:connector-curvature="0" class="st2" d="
		M-146.9,515v25h-8.3v-25H-146.9z M-151,543.4c2.9,0,4.7,1.9,4.7,4.3c-0.1,2.5-1.8,4.3-4.6,4.3s-4.7-1.9-4.7-4.3
		C-155.7,545.3-153.9,543.4-151,543.4L-151,543.4L-151,543.4z"/>
	<path id="path30_00000142896947209916056990000014362949932606818963_" inkscape:connector-curvature="0" class="st2" d="
		M-142.3,515h8.3v13.9c0,0.7,0.1,1.5,0.3,2c0.6,1.5,2,3,4.3,3c3,0,4.2-2.3,4.2-5.6V515h8.3v14.3c0,7.7-4.1,11.2-9.6,11.2
		c-4.5,0-6.4-2.5-7.5-4.2h0.1v3.6h-8.3C-142.2,537.6-142.3,515-142.3,515L-142.3,515z"/>
</g>
</svg>
